<svg id="Livello_1" data-name="Livello 1" xmlns="http://www.w3.org/2000/svg" viewBox="0 0 465.18 236.94">
  <defs>
    <style>
      .cls-1 {
        fill: #00b7ff;
      }

      .cls-2 {
        fill: #ffce00;
      }

      .cls-3 {
        fill: #fa0;
      }
    </style>
  </defs>
  <g>
    <path class="cls-1" d="M143.79,59.24a8.46,8.46,0,0,0-8.46,8.46h0V80.17a8.61,8.61,0,0,0,7.5,8.63,8.47,8.47,0,0,0,9.42-8.41V67.7a8.45,8.45,0,0,0-8.45-8.46Z" transform="translate(0)"/>
    <path class="cls-1" d="M203,84.62V8.46A8.46,8.46,0,0,0,193.23.1a8.65,8.65,0,0,0-5.84,3.83l-6.25,9.38a59.05,59.05,0,0,0-74.7,0l-6.25-9.37A8.59,8.59,0,0,0,90.53.38a8.46,8.46,0,0,0-6,8.08V69.21C33,81.12,0,126.25,0,186.17a8.45,8.45,0,0,0,8.45,8.46H93c1.18,0,2.36,0,3.53,0L100.2,220H93.26a8.61,8.61,0,0,0-8.63,7.5A8.47,8.47,0,0,0,93,236.94h75.9a8.61,8.61,0,0,0,8.63-7.5,8.47,8.47,0,0,0-8.41-9.42h-18l-5.54-38.79A110.08,110.08,0,0,0,203,84.62ZM117.29,220l-3.89-27.28a109.21,109.21,0,0,0,16.12-4.33L134,220Zm26.5-118.47A42.35,42.35,0,0,1,101.5,59.24c0-13.86,4.11-23.21,11.59-26.3a16.48,16.48,0,0,1,6.36-1.19,27,27,0,0,1,18.36,8.08,8.45,8.45,0,0,0,12,0h0a24.22,24.22,0,0,1,24.72-6.89C182,36,186.08,45.38,186.08,59.24A42.36,42.36,0,0,1,143.79,101.55Z" transform="translate(0)"/>
  </g>
  <g>
    <path class="cls-2" d="M280.89,88.28Q270.9,98.57,252,98.57T223.14,88.28q-13.39-12.61-13.39-36.34,0-24.21,13.39-36.35Q233.12,5.3,252,5.31t28.88,10.28q13.33,12.14,13.33,36.35Q294.22,75.67,280.89,88.28ZM269.38,74.89q6.42-8.07,6.43-23T269.38,29Q263,20.91,252,20.91T234.56,29q-6.52,8.07-6.52,23t6.52,23Q241.07,83,252,83T269.38,74.89Z" transform="translate(0)"/>
    <path class="cls-2" d="M308,8l11.64,50.46,2.53,14,2.54-13.75L334.67,8H354.1l10.47,50.45,2.69,14L370,59,381.72,8h18.75L375.68,96.11H358.05L347.41,44.58l-3.11-17-3.11,17L330.55,96.11h-17.1L288.46,8Z" transform="translate(0)"/>
    <path class="cls-2" d="M402.77,8h18.41V80.27h44V96.11H402.77Z" transform="translate(0)"/>
  </g>
  <g>
    <path class="cls-3" d="M209.75,122.37a20,20,0,0,1,3.92-12.66q3.89-5.11,11.22-5.21,7.79.09,11.66,5.16t3.84,12.7a20.2,20.2,0,0,1-3.84,12.51q-3.87,5.16-11.5,5.25-7.59-.09-11.42-5.25A20,20,0,0,1,209.75,122.37Zm15.35,15q6.36-.09,9.26-4.57a18.71,18.71,0,0,0,2.86-10.48Q237,107.51,225,107.21q-6.24.11-9.14,4.57a18.63,18.63,0,0,0-3,10.59,22.38,22.38,0,0,0,.73,5.7,13.58,13.58,0,0,0,2.18,4.78Q218.73,137.32,225.1,137.42Z" transform="translate(0)"/>
    <path class="cls-3" d="M246.87,148.82h-2.7V114.87h2.71v4.28H247a9,9,0,0,1,3.6-3.71,9.72,9.72,0,0,1,4.58-1.21c3.8,0,6.54,1.25,8.25,3.65a16,16,0,0,1,2.42,9.14,15.35,15.35,0,0,1-2.56,8.93q-2.6,3.86-7.95,3.94a10,10,0,0,1-4.8-1.23,8.77,8.77,0,0,1-3.63-3.31Zm0-21.65a11.91,11.91,0,0,0,2.14,7.14,6.84,6.84,0,0,0,5.84,3.06,7.07,7.07,0,0,0,6.31-3.29,12.55,12.55,0,0,0,1.76-7.76q-.09-4.62-2.27-7.11a7.47,7.47,0,0,0-5.8-2.46,6.81,6.81,0,0,0-5.88,3A12.45,12.45,0,0,0,246.87,127.17Z" transform="translate(0)"/>
    <path class="cls-3" d="M270.83,127.7a11.15,11.15,0,0,0,2,6.79,6.91,6.91,0,0,0,5.94,2.88q5.64,0,7.15-5.62H289a12.2,12.2,0,0,1-3.31,5.78,9.69,9.69,0,0,1-6.87,2.36q-5.61-.09-8.25-3.71a14.49,14.49,0,0,1-2.6-9,14.33,14.33,0,0,1,2.91-9.18,9.7,9.7,0,0,1,7.94-3.74q10,.09,10.35,13.47Zm15.43-2.33a9.6,9.6,0,0,0-1.88-6.11,7.43,7.43,0,0,0-11.17,0,11.78,11.78,0,0,0-2.38,6.07Z" transform="translate(0)"/>
    <path class="cls-3" d="M294.64,139.23h-2.7V114.87h2.7v3.38a13.73,13.73,0,0,1,3.43-3,8,8,0,0,1,4.18-1.07,8.25,8.25,0,0,1,7.2,3.47,6.07,6.07,0,0,1,1,2.64c.08.93.13,1.92.13,3v15.93h-2.71V123.34q.09-6.59-6.1-6.59a6.6,6.6,0,0,0-4.21,1.43,7.8,7.8,0,0,0-2.36,3.33,15.32,15.32,0,0,0-.6,4.61Z" transform="translate(0)"/>
  </g>
  <path class="cls-3" d="M238.52,183.31h.09L245.77,154H249l-8.61,33.83h-3.42l-7.6-29.88h-.09l-7.61,29.88h-3.4L209.75,154h3.09l7,29.34H220l7.6-29.34h3.47Z" transform="translate(0)"/>
  <path class="cls-3" d="M259.31,188.47a10.26,10.26,0,0,1-7.7-3.3q-3.17-3.19-3.22-9.53a14.73,14.73,0,0,1,2.74-9.14c1.82-2.4,4.54-3.63,8.18-3.69s6.42,1.29,8.24,3.69a15,15,0,0,1,2.69,9.14q0,5.88-3,9.25A9.89,9.89,0,0,1,259.31,188.47Zm8-12.82a13.07,13.07,0,0,0-1.83-7.35c-1.24-2-3.32-2.94-6.21-3s-4.91,1.11-6.16,3.15a13.45,13.45,0,0,0-1.87,7.17,12,12,0,0,0,2.1,7.38,6.87,6.87,0,0,0,5.93,2.92c2.86,0,4.94-1.1,6.21-3.2A13.52,13.52,0,0,0,267.35,175.65Z" transform="translate(0)"/>
  <path class="cls-3" d="M275.56,187.8h-2.71V163.45h2.71V168h.09a8.13,8.13,0,0,1,3-4.07,8.94,8.94,0,0,1,4.74-1.12v3c-3,0-5.07.95-6.2,2.87a14.07,14.07,0,0,0-1.59,7.16Z" transform="translate(0)"/>
  <path class="cls-3" d="M284.8,187.8V154h2.7V175l11.57-11.57h3.73L294,172.24l9.87,15.56H300.8L292,174.21l-4.47,4.39v9.2Z" transform="translate(0)"/>
  <path class="cls-3" d="M212.76,227V193.15h3.16v31.12H233.5V227Z" transform="translate(0)"/>
  <path class="cls-3" d="M244.5,227.65a10.26,10.26,0,0,1-7.69-3.31q-3.18-3.19-3.22-9.53a14.76,14.76,0,0,1,2.73-9.13c1.82-2.4,4.55-3.64,8.18-3.7s6.42,1.3,8.25,3.7a14.93,14.93,0,0,1,2.69,9.13q0,5.88-3,9.25A9.93,9.93,0,0,1,244.5,227.65Zm8.05-12.82a13.13,13.13,0,0,0-1.83-7.36c-1.25-1.95-3.32-2.93-6.22-3s-4.9,1.11-6.15,3.14a13.46,13.46,0,0,0-1.87,7.18,11.91,11.91,0,0,0,2.09,7.37,6.86,6.86,0,0,0,5.93,2.92q4.31,0,6.22-3.19A13.57,13.57,0,0,0,252.55,214.83Z" transform="translate(0)"/>
  <path class="cls-3" d="M276.13,202.63h2.71v22a14.91,14.91,0,0,1-2.14,8.54q-2.31,3.67-8.92,3.76-5.16-.09-7.48-2.43a7.48,7.48,0,0,1-1.82-2.32,6,6,0,0,1-.69-2.25h2.92a5,5,0,0,0,2.65,3.58,10.45,10.45,0,0,0,4.42.9,9.51,9.51,0,0,0,4.52-1,6.17,6.17,0,0,0,2.54-2.57,10.88,10.88,0,0,0,1.14-3.62,25.19,25.19,0,0,0,.15-4.08,8.94,8.94,0,0,1-3.6,3.31,9.92,9.92,0,0,1-4.83,1.24c-3.59-.07-6.24-1.38-7.95-4a17.34,17.34,0,0,1-.08-18.07q2.55-3.6,8.16-3.65a10.1,10.1,0,0,1,4.7,1.22,8.39,8.39,0,0,1,3.49,3.72h.11Zm0,12.29a12.72,12.72,0,0,0-2-7.45,6.91,6.91,0,0,0-6-3,7.29,7.29,0,0,0-5.71,2.46q-2.22,2.47-2.36,7.1a13.17,13.17,0,0,0,1.87,7.77,6.81,6.81,0,0,0,6.2,3.28,6.89,6.89,0,0,0,5.89-3.05A12,12,0,0,0,276.13,214.92Z" transform="translate(0)"/>
</svg>
